<?xml version="1.0" encoding="UTF-8"?>
<!DOCTYPE svg PUBLIC "-//W3C//DTD SVG 1.1//EN" "http://www.w3.org/Graphics/SVG/1.1/DTD/svg11.dtd">
<svg xmlns="http://www.w3.org/2000/svg" version="1.1" width="240px" height="240px" style="shape-rendering:geometricPrecision; text-rendering:geometricPrecision; image-rendering:optimizeQuality; fill-rule:evenodd; clip-rule:evenodd" xmlns:xlink="http://www.w3.org/1999/xlink">
<g><path style="opacity:0.998" fill="#c0daf0" d="M 195.5,95.5 C 144.833,95.5 94.1667,95.5 43.5,95.5C 43.3334,69.1646 43.5,42.8312 44,16.5C 46.1667,10.3333 50.3333,6.16667 56.5,4C 98.5,3.33333 140.5,3.33333 182.5,4C 188.667,6.16667 192.833,10.3333 195,16.5C 195.5,42.8312 195.667,69.1646 195.5,95.5 Z"/></g>
<g><path style="opacity:1" fill="#e0edfe" d="M 112.5,19.5 C 139.377,18.876 152.211,31.876 151,58.5C 144.734,76.8875 131.901,85.0542 112.5,83C 94.1276,76.7715 85.9609,63.9382 88,44.5C 91.6829,31.6514 99.8496,23.3181 112.5,19.5 Z"/></g>
<g><path style="opacity:1" fill="#fefefe" d="M 113.5,27.5 C 127.792,26.2278 137.625,32.2278 143,45.5C 144.761,59.8083 138.928,69.6416 125.5,75C 111.192,76.7609 101.358,70.9276 96,57.5C 94.3639,43.1015 100.197,33.1015 113.5,27.5 Z"/></g>
<g><path style="opacity:1" fill="#c85061" d="M 125.5,39.5 C 130.675,38.5071 132.509,40.5071 131,45.5C 127.833,48.6667 124.667,51.8333 121.5,55C 117,55.8333 115.167,54 116,49.5C 119.371,46.2975 122.538,42.9641 125.5,39.5 Z"/></g>
<g><path style="opacity:1" fill="#e1edfe" d="M 43.5,95.5 C 94.1667,95.5 144.833,95.5 195.5,95.5C 195.667,120.502 195.5,145.502 195,170.5C 191.296,179.039 184.796,183.372 175.5,183.5C 138.167,183.5 100.833,183.5 63.5,183.5C 54.204,183.372 47.704,179.039 44,170.5C 43.5,145.502 43.3334,120.502 43.5,95.5 Z"/></g>
<g><path style="opacity:1" fill="#f8c157" d="M 121.5,107.5 C 126,107.164 127.833,109.164 127,113.5C 122.707,120.585 118.54,127.751 114.5,135C 120.833,135.333 127.167,135.667 133.5,136C 134.804,136.804 135.471,137.971 135.5,139.5C 130.271,149.624 124.771,159.624 119,169.5C 114,172.833 111.667,171.5 112,165.5C 116.293,158.415 120.46,151.249 124.5,144C 118.167,143.667 111.833,143.333 105.5,143C 104.196,142.196 103.529,141.029 103.5,139.5C 108.989,128.52 114.989,117.853 121.5,107.5 Z"/></g>
<g><path style="opacity:0.997" fill="#9eb9ce" d="M 63.5,183.5 C 100.833,183.5 138.167,183.5 175.5,183.5C 175.666,187.514 175.499,191.514 175,195.5C 173.461,198.521 170.961,199.854 167.5,199.5C 156.833,199.5 146.167,199.5 135.5,199.5C 124.833,199.5 114.167,199.5 103.5,199.5C 92.8333,199.5 82.1667,199.5 71.5,199.5C 69.0637,199.683 66.897,199.016 65,197.5C 63.6211,192.964 63.1211,188.297 63.5,183.5 Z"/></g>
<g><path style="opacity:0.987" fill="#b0cbdc" d="M 71.5,199.5 C 82.1667,199.5 92.8333,199.5 103.5,199.5C 103.666,203.514 103.499,207.514 103,211.5C 101.461,214.521 98.9612,215.854 95.5,215.5C 90.1667,215.5 84.8333,215.5 79.5,215.5C 77.0637,215.683 74.897,215.016 73,213.5C 71.6211,208.964 71.1211,204.297 71.5,199.5 Z"/></g>
<g><path style="opacity:0.987" fill="#b0cbdc" d="M 135.5,199.5 C 146.167,199.5 156.833,199.5 167.5,199.5C 167.666,203.514 167.499,207.514 167,211.5C 165.461,214.521 162.961,215.854 159.5,215.5C 154.167,215.5 148.833,215.5 143.5,215.5C 141.064,215.683 138.897,215.016 137,213.5C 135.621,208.964 135.121,204.297 135.5,199.5 Z"/></g>
<g><path style="opacity:0.998" fill="#e1edff" d="M 79.5,215.5 C 84.8333,215.5 90.1667,215.5 95.5,215.5C 95.6662,221.842 95.4995,228.175 95,234.5C 90,235.833 85,235.833 80,234.5C 79.5005,228.175 79.3338,221.842 79.5,215.5 Z"/></g>
<g><path style="opacity:0.998" fill="#e1edff" d="M 143.5,215.5 C 148.833,215.5 154.167,215.5 159.5,215.5C 159.666,221.842 159.5,228.175 159,234.5C 154,235.833 149,235.833 144,234.5C 143.5,228.175 143.334,221.842 143.5,215.5 Z"/></g>
</svg>
